<?xml version="1.0" encoding="iso-8859-1"?>
<!-- Generator: Adobe Illustrator 16.0.0, SVG Export Plug-In . SVG Version: 6.00 Build 0)  -->
<!DOCTYPE svg PUBLIC "-//W3C//DTD SVG 1.1//EN" "http://www.w3.org/Graphics/SVG/1.1/DTD/svg11.dtd">
<svg version="1.1" id="Capa_1" xmlns="http://www.w3.org/2000/svg" xmlns:xlink="http://www.w3.org/1999/xlink" x="0px" y="0px"
	 width="77.607px" height="77.608px" viewBox="0 0 77.607 77.608" style="enable-background:new 0 0 77.607 77.608;"
	 xml:space="preserve">
<g>
	<g>
		<g>
			<path d="M54.034,11.22c-1.595-1.074-5.167,1.032-6.95,5.053c-0.698,1.582-3.787,15.042-3.6,17.343
				c0.185,2.301,1.48,4.646,3.115,5.513c1.639,0.867,10.073,5.737,12.106,3.675C60.738,40.742,56.5,12.885,54.034,11.22z"/>
			<path d="M74,16.272c-1.781-4.021-5.355-6.127-6.95-5.053c-2.468,1.666-6.699,29.522-4.672,31.583
				c2.03,2.062,10.466-2.81,12.105-3.675c1.641-0.864,2.932-3.211,3.116-5.513C77.787,31.315,74.698,17.854,74,16.272z"/>
		</g>
		<g>
			<path d="M23.574,34.578c1.593-1.075,5.167,1.032,6.949,5.052c0.698,1.583,3.787,15.044,3.6,17.343
				c-0.185,2.302-1.479,4.646-3.116,5.514c-1.638,0.867-10.072,5.737-12.104,3.675C16.87,64.1,21.107,36.243,23.574,34.578z"/>
			<path d="M3.607,39.63c1.782-4.02,5.356-6.127,6.95-5.052c2.468,1.665,6.7,29.522,4.671,31.583
				c-2.03,2.062-10.465-2.811-12.104-3.675c-1.64-0.864-2.931-3.212-3.116-5.514C-0.179,54.674,2.909,41.213,3.607,39.63z"/>
		</g>
	</g>
</g>
<g>
</g>
<g>
</g>
<g>
</g>
<g>
</g>
<g>
</g>
<g>
</g>
<g>
</g>
<g>
</g>
<g>
</g>
<g>
</g>
<g>
</g>
<g>
</g>
<g>
</g>
<g>
</g>
<g>
</g>
</svg>
